<svg xmlns="http://www.w3.org/2000/svg" width="149.121" height="211.948" viewBox="0 0 149.121 211.948"><defs><style>.a{fill:#fff;}.b{fill:#313c8e;}.c{opacity:0.35;}.d{fill:#371a45;}.e{fill:none;stroke:#6b184e;stroke-linecap:round;stroke-miterlimit:10;stroke-width:27.197px;}.f{fill:#327bc4;}.g{opacity:0.7;}.h{fill:#111a28;}.i{fill:#22a7f0;}.j{fill:#f9a528;}.k{fill:#fcd57e;}.l{opacity:0.6;}.m{fill:#2cbad5;}.n{opacity:0.5;}.o{fill:#ffce00;}</style></defs><g transform="translate(0 0)"><g transform="translate(0 0)"><g transform="translate(0 0)"><g transform="translate(40.113 78.596)"><rect class="a" width="68.559" height="53.758" rx="26.879"/></g><g transform="translate(39.131 77.615)"><path class="b" d="M1526.693,1482.145h-52.4a9.073,9.073,0,0,1-9.063-9.063v-37.594a9.073,9.073,0,0,1,9.063-9.063h52.4a9.073,9.073,0,0,1,9.063,9.063v37.594A9.073,9.073,0,0,1,1526.693,1482.145Zm-52.4-53.758a7.108,7.108,0,0,0-7.1,7.1v37.594a7.108,7.108,0,0,0,7.1,7.1h52.4a7.108,7.108,0,0,0,7.1-7.1v-37.594a7.108,7.108,0,0,0-7.1-7.1Z" transform="translate(-1465.234 -1426.424)"/></g><g transform="translate(1.06 62.095)"><path class="a" d="M1034.067,1213.4c-6.625,8.634-20.448,17.528-36.839,24.285,0,0-3.087,33.113-8.234,50.092H939.163c-5.144-16.979-8.231-50.092-8.231-50.092-16.393-6.758-30.216-15.651-36.841-24.285-5.041-6.567-4.113-16.42-.633-19.446,4.245-3.694,11.31,1.664,11.31,1.664s.928-3.079,2.944-3.419c3.114-.527,3.2,7.436,4.314,8.281a78.554,78.554,0,0,0,15.635,9.54,55.8,55.8,0,0,0,5.822,2.276,90.5,90.5,0,0,0,17.392,3.739h26.405a91.6,91.6,0,0,0,16.945-3.591,56.349,56.349,0,0,0,6.27-2.425,78.543,78.543,0,0,0,15.635-9.54c1.119-.845,1.2-8.809,4.314-8.281,2.02.339,2.944,3.419,2.944,3.419s7.068-5.358,11.313-1.664C1038.18,1196.984,1039.108,1206.837,1034.067,1213.4Z" transform="translate(-890.578 -1192.178)"/></g><g class="c" transform="translate(1.061 68.795)"><path class="d" d="M939.182,1382.2c-5.144-16.979-8.231-50.092-8.231-50.092-16.393-6.758-30.216-15.651-36.841-24.285a17.979,17.979,0,0,1-3.511-10.815c.535,2.245,1.033,4.939,2.987,6.395,5.1,3.8,6.819-12.289,11.773-9.854.46.226-1.851,1.468-2.616,5.95a13.454,13.454,0,0,0,2.616,10.974c3.968,5.715,13.9,10.108,22.016,13.668a15.767,15.767,0,0,1,9.324,12.614c1.291,11.052,3.814,29.655,7.26,41.026Z" transform="translate(-890.598 -1293.294)"/></g><g class="c" transform="translate(94.703 68.795)"><path class="d" d="M2308.8,1382.2c5.144-16.979,8.231-50.092,8.231-50.092,16.393-6.758,30.216-15.651,36.841-24.285a17.978,17.978,0,0,0,3.511-10.815c-.535,2.245-1.033,4.939-2.987,6.395-5.1,3.8-6.819-12.289-11.773-9.854-.459.226,1.851,1.468,2.616,5.95a13.454,13.454,0,0,1-2.616,10.974c-3.968,5.715-13.9,10.108-22.016,13.668a15.767,15.767,0,0,0-9.324,12.614c-1.291,11.052-3.814,29.655-7.26,41.026Z" transform="translate(-2304.021 -1293.294)"/></g><g transform="translate(0 61.029)"><path class="b" d="M974.062,1273.812a1.061,1.061,0,0,1-1.015-1.368c5.055-16.682,8.161-49.554,8.192-49.884l.059-.637.592-.244c16.756-6.907,30.024-15.636,36.4-23.949,4.661-6.074,3.794-15.377.78-18-3.542-3.083-9.913,1.662-9.977,1.71l-1.216.918-.439-1.458c-.194-.634-1-2.493-2.1-2.68-1.044-.177-1.757,2.967-2.141,4.657-.433,1.9-.69,2.92-1.356,3.425a80.546,80.546,0,0,1-15.831,9.658c-6.221,2.871-14.358,4.983-23.531,6.106l-.129.008h-26.47l-.064-.008c-9.173-1.123-17.31-3.234-23.531-6.106a80.53,80.53,0,0,1-15.832-9.658c-.665-.5-.922-1.521-1.356-3.425-.384-1.689-1.1-4.837-2.141-4.657s-1.864,1.881-2.1,2.68l-.439,1.462-1.217-.922c-.063-.047-6.434-4.793-9.976-1.709-3.015,2.624-3.881,11.927.78,18,6.379,8.313,19.647,17.042,36.4,23.949l.592.244.059.637c.031.33,3.137,33.2,8.192,49.884a1.06,1.06,0,0,1-2.029.615c-4.723-15.586-7.749-44.969-8.212-49.665-16.813-7.008-30.164-15.873-36.687-24.374-5.19-6.763-4.6-17.316-.49-20.891,3.786-3.295,9.195-.591,11.523.857a4.871,4.871,0,0,1,3.252-2.858c3.017-.514,3.909,3.413,4.561,6.277a12.9,12.9,0,0,0,.63,2.252,76.905,76.905,0,0,0,15.379,9.377c6.01,2.774,13.9,4.82,22.836,5.919h26.276c8.931-1.1,16.826-3.145,22.836-5.919a76.9,76.9,0,0,0,15.379-9.377,12.923,12.923,0,0,0,.629-2.252c.652-2.864,1.545-6.789,4.561-6.277a4.871,4.871,0,0,1,3.252,2.858c2.328-1.448,7.737-4.152,11.523-.857,4.107,3.575,4.7,14.128-.49,20.891-6.523,8.5-19.874,17.366-36.687,24.374-.463,4.7-3.489,34.079-8.212,49.665A1.061,1.061,0,0,1,974.062,1273.812Z" transform="translate(-874.586 -1176.082)"/></g><g transform="translate(88.318 102.412)"><path class="e" d="M2207.657,1800.707" transform="translate(-2207.657 -1800.707)"/></g><g transform="translate(20.452)"><g transform="translate(89.04 39.064)"><path class="a" d="M2532.628,871.326h0a.778.778,0,0,1-.833-.718l-1.674-22.338a.778.778,0,0,1,.717-.834h0a8.159,8.159,0,0,1,8.746,7.526l.57,7.617A8.158,8.158,0,0,1,2532.628,871.326Z" transform="translate(-2529.928 -847.224)"/><path class="d" d="M2529.884,868.842a.968.968,0,0,1-.964-.9l-1.674-22.338a.969.969,0,0,1,.894-1.037,8.348,8.348,0,0,1,8.949,7.7l.571,7.617a8.349,8.349,0,0,1-7.7,8.949h0Zm-1.108-23.914c-.2,0-.4.007-.608.023a.587.587,0,0,0-.542.629l1.674,22.338a.587.587,0,0,0,.629.542h0a7.968,7.968,0,0,0,7.351-8.541l-.571-7.617a7.969,7.969,0,0,0-7.933-7.373Z" transform="translate(-2527.244 -844.547)"/></g><g class="c" transform="translate(90.458 50.849)"><path class="d" d="M2557.2,1022.426l.269,3.572a8.162,8.162,0,0,1-7.527,8.746.78.78,0,0,1-.834-.719l-.447-5.938a.78.78,0,0,0,.74.407l.529-.041A8.152,8.152,0,0,0,2557.2,1022.426Z" transform="translate(-2548.659 -1022.426)"/></g><g transform="translate(88.17 38.194)"><path class="b" d="M2517.627,857.451a1.837,1.837,0,0,1-1.829-1.7l-1.674-22.338a1.839,1.839,0,0,1,1.7-1.97,9.218,9.218,0,0,1,9.882,8.5l.571,7.617a9.218,9.218,0,0,1-8.5,9.881h0C2517.72,857.45,2517.674,857.451,2517.627,857.451Zm-.017-2.12h0Zm-1.35-21.79,1.631,21.763a7.1,7.1,0,0,0,6.267-7.582l-.571-7.617a7.1,7.1,0,0,0-7.327-6.564Z" transform="translate(-2514.119 -831.417)"/></g><g transform="translate(8.478 44.608)"><path class="a" d="M1321.677,931.112h0a.778.778,0,0,1,.834.717l1.673,22.338a.778.778,0,0,1-.718.834h0a8.159,8.159,0,0,1-8.745-7.526l-.571-7.617A8.159,8.159,0,0,1,1321.677,931.112Z" transform="translate(-1313.937 -930.919)"/><path class="d" d="M1320.162,952.525a8.35,8.35,0,0,1-8.312-7.726l-.571-7.617a8.358,8.358,0,0,1,7.7-8.949h0a.968.968,0,0,1,1.038.893l1.673,22.338a.969.969,0,0,1-.893,1.038Q1320.479,952.525,1320.162,952.525Zm-1.153-23.913a7.977,7.977,0,0,0-7.35,8.541l.571,7.617a7.968,7.968,0,0,0,8.541,7.35.588.588,0,0,0,.542-.629l-1.674-22.338a.589.589,0,0,0-.63-.542Z" transform="translate(-1311.255 -928.23)"/></g><g class="c" transform="translate(9.023 57.956)"><path class="d" d="M1328.713,1133.4l.464,6.2a.779.779,0,0,1-.719.834,8.155,8.155,0,0,1-8.744-7.525l-.24-3.21a8.161,8.161,0,0,0,7.77,4.223l.815-.061A.787.787,0,0,0,1328.713,1133.4Z" transform="translate(-1319.473 -1129.691)"/></g><g transform="translate(7.609 43.74)"><path class="b" d="M1307.9,941.156a9.219,9.219,0,0,1-9.178-8.53l-.571-7.617a9.23,9.23,0,0,1,8.5-9.882h0a1.847,1.847,0,0,1,1.969,1.7l1.674,22.337a1.84,1.84,0,0,1-1.7,1.97C1308.371,941.148,1308.136,941.156,1307.9,941.156Zm-1.367-23.888a7.107,7.107,0,0,0-6.267,7.582l.571,7.617a7.1,7.1,0,0,0,7.327,6.564Zm.281-.026h0Z" transform="translate(-1298.128 -915.123)"/></g><g class="c" transform="translate(23.514 82.219)"><path class="d" d="M1598.94,1496.064a38.174,38.174,0,0,1-60.742-.149,90.5,90.5,0,0,0,17.392,3.739H1582A91.63,91.63,0,0,0,1598.94,1496.064Z" transform="translate(-1538.198 -1495.916)"/></g><g transform="translate(0)"><circle class="a" cx="38.172" cy="38.172" r="38.172" transform="translate(0 53.983) rotate(-45)"/><path class="d" d="M1457.425,567.417a38.363,38.363,0,0,1-.143-76.725h.149a38.363,38.363,0,0,1,.141,76.725Zm.006-76.344h-.148a37.982,37.982,0,0,0,.142,75.963h.146a37.981,37.981,0,0,0-.14-75.963Z" transform="translate(-1403.444 -475.071)"/></g><g class="c" transform="translate(15.81 48.556)"><path class="d" d="M1497.876,987.817a38.174,38.174,0,1,1-75.959,5.572c0-.606.009-1.213.036-1.811a38.174,38.174,0,0,0,75.924-3.761Z" transform="translate(-1421.916 -987.817)"/></g><g transform="translate(14.751 14.751)"><path class="b" d="M1445.169,556.031a39.232,39.232,0,0,1-.146-78.464h.153a39.232,39.232,0,0,1,.144,78.464Zm.007-76.344h-.145a37.112,37.112,0,0,0,.138,74.224h.143a37.112,37.112,0,0,0-.137-74.224Z" transform="translate(-1405.94 -477.567)"/></g><g transform="translate(16.175 27.566)"><path class="f" d="M1503.287,698.242a34.241,34.241,0,0,1-6.19,20.263c-3.027,4.36-15.663,12.128-31.439,12.568-14.628.408-28.086-7.141-31.276-11.383a34.238,34.238,0,0,1-6.951-20.015c-.374-19.763,16.452-28.277,37.4-28.673S1502.913,678.479,1503.287,698.242Z" transform="translate(-1427.425 -670.988)"/></g><g transform="translate(15.115 26.505)"><path class="b" d="M1449.548,717.2c-14.694,0-27.687-7.474-30.956-11.822a35.261,35.261,0,0,1-7.164-20.631c-.184-9.719,3.573-17.287,11.165-22.494,6.616-4.537,16.047-7.047,27.275-7.26s20.748,1.94,27.53,6.224c7.783,4.916,11.823,12.337,12.006,22.056h0a35.26,35.26,0,0,1-6.379,20.888c-2.993,4.311-15.534,12.556-32.28,13.023C1450.346,717.2,1449.945,717.2,1449.548,717.2Zm1.7-60.1q-.7,0-1.341.013c-11.085.21-36.819,3.318-36.36,27.594a33.155,33.155,0,0,0,6.738,19.4c3.035,4.036,16.155,11.367,30.4,10.96,15.793-.44,27.9-8.234,30.6-12.113a33.157,33.157,0,0,0,6-19.639h0C1486.843,659.973,1462.941,657.1,1451.249,657.1Z" transform="translate(-1411.422 -654.98)"/></g><g class="g" transform="translate(73.748 44.918)"><ellipse class="a" cx="6.755" cy="4.895" rx="6.755" ry="4.895" transform="translate(0 13.337) rotate(-80.812)"/></g><g class="g" transform="translate(70.461 62.113)"><ellipse class="a" cx="3.101" cy="2.661" rx="3.101" ry="2.661" transform="translate(0 5.926) rotate(-72.87)"/></g><g class="c" transform="translate(38.709 36.521)"><path class="h" d="M1813.151,806.166c4.72,4.337,7.574,10.359,7.725,18.3a34.255,34.255,0,0,1-6.188,20.264c-3.028,4.36-15.665,12.128-31.441,12.57a47.089,47.089,0,0,1-15.7-2.375c19.381-.956,34.771-10.489,38.525-15.9a43.443,43.443,0,0,0,7.855-25.716A38.633,38.633,0,0,0,1813.151,806.166Z" transform="translate(-1767.548 -806.166)"/></g><g transform="translate(17.661 22.541)"><path class="b" d="M1450.91,613a1.059,1.059,0,0,1-.865-1.67c6.527-9.981,19.434-15.878,35.417-16.181,15.867-.292,28.98,4.917,35.984,14.313a1.06,1.06,0,0,1-1.44,1.537l-.125-.088-.1-.137c-6.582-8.87-19.074-13.784-34.278-13.506-15.286.289-27.569,5.847-33.7,15.248l-.078.1A1.064,1.064,0,0,1,1450.91,613Z" transform="translate(-1449.851 -595.141)"/></g><g class="g" transform="translate(22.914 32.854)"><path class="a" d="M1531.154,785.8s-6.49-19.381,3.871-27.349,25.478-8.222,25.143-7.246c0,0-16.659,4.368-22.957,17.722C1532.354,779.224,1531.154,785.8,1531.154,785.8Z" transform="translate(-1529.147 -750.803)"/></g></g><g transform="translate(37.489 102.701)"><g transform="translate(1.061 9.151)"><path class="a" d="M1475.831,1952.488c-4.213,1.705-10.732,1.348-15.177.811a4.772,4.772,0,0,1-4.144-5.439h0a4.771,4.771,0,0,1,4.94-4.072c4.157.195,10.393.286,14.342-.59" transform="translate(-1456.458 -1943.198)"/></g><g class="c" transform="translate(1.062 12.3)"><path class="d" d="M1475.845,1996.865c-4.214,1.708-10.734,1.348-15.177.813a4.782,4.782,0,0,1-3.654-6.954,4.763,4.763,0,0,0,3.654,2.524c4.437.538,10.945.9,15.159-.8Z" transform="translate(-1456.472 -1990.724)"/></g><g transform="translate(0 8.075)"><path class="d" d="M1452.506,1939.634a58.61,58.61,0,0,1-6.931-.453,5.836,5.836,0,0,1,.972-11.622c4.336.2,10.3.27,14.063-.566.574-.128,2-.128,2.848,2.6.871,2.8.78,7.506-2.181,8.705A24.269,24.269,0,0,1,1452.506,1939.634Zm-6.235-9.961a3.716,3.716,0,0,0-.441,7.4c6.365.769,11.569.507,14.652-.741.974-.394,1.229-1.971,1.294-2.631a7.493,7.493,0,0,0-.875-4.606c-4,.848-10.051.784-14.453.578C1446.389,1929.675,1446.33,1929.673,1446.271,1929.673Z" transform="translate(-1440.445 -1926.952)"/></g><g transform="translate(52.657 9.151)"><path class="a" d="M2235.245,1952.488c4.213,1.705,10.732,1.348,15.177.811a4.772,4.772,0,0,0,4.145-5.439h0a4.772,4.772,0,0,0-4.94-4.072c-4.157.195-10.393.286-14.342-.59" transform="translate(-2235.245 -1943.198)"/></g><g class="c" transform="translate(52.655 12.277)"><path class="d" d="M2250.4,1997.364c-4.444.535-10.964.895-15.178-.813l.019-4.459c4.214,1.7,10.722,1.34,15.159.8a4.75,4.75,0,0,0,3.642-2.506,4.774,4.774,0,0,1-3.642,6.976Z" transform="translate(-2235.219 -1990.388)"/></g><g transform="translate(49.598 8.075)"><path class="d" d="M2200.5,1939.635a24.267,24.267,0,0,1-8.771-1.333h0c-2.962-1.2-3.053-5.9-2.182-8.7.849-2.731,2.275-2.73,2.848-2.6,3.768.836,9.728.769,14.063.566a5.836,5.836,0,0,1,.972,11.623A58.621,58.621,0,0,1,2200.5,1939.635Zm-8.4-10.534a7.5,7.5,0,0,0-.875,4.606c.065.66.321,2.236,1.294,2.63,3.083,1.248,8.286,1.512,14.652.741a3.716,3.716,0,0,0-.618-7.4C2202.158,1929.885,2196.106,1929.949,2192.107,1929.1Z" transform="translate(-2189.07 -1926.953)"/></g><g transform="translate(16.823 1.061)"><path class="a" d="M1731.831,1826.109V1841a5.039,5.039,0,0,1-5.023,5.023h-27.419a5.038,5.038,0,0,1-5.02-5.023v-14.888a5.035,5.035,0,0,1,5.02-5.02h27.419a5.034,5.034,0,0,1,5.023,5.02Z" transform="translate(-1694.369 -1821.089)"/></g><g class="c" transform="translate(16.823 3.051)"><path class="d" d="M1731.831,1854.156v14.888a5.039,5.039,0,0,1-5.023,5.023h-27.419a5.038,5.038,0,0,1-5.02-5.023v-5.569c5.721,4.248,18.208,7.2,26.012.839a35.055,35.055,0,0,0,10.425-13.188A4.984,4.984,0,0,1,1731.831,1854.156Z" transform="translate(-1694.369 -1851.126)"/></g><g transform="translate(15.763)"><path class="d" d="M1711.871,1832.124h-27.419a6.088,6.088,0,0,1-6.081-6.081v-14.89a6.087,6.087,0,0,1,6.081-6.081h27.419a6.087,6.087,0,0,1,6.081,6.081v14.89A6.088,6.088,0,0,1,1711.871,1832.124Zm-27.419-24.932a3.965,3.965,0,0,0-3.961,3.961v14.89a3.965,3.965,0,0,0,3.961,3.961h27.419a3.965,3.965,0,0,0,3.961-3.961v-14.89a3.965,3.965,0,0,0-3.961-3.961Z" transform="translate(-1678.371 -1805.072)"/></g><g transform="translate(40.937 9.196)"><circle class="i" cx="4.33" cy="4.33" r="4.33"/></g><g class="c" transform="translate(40.938 11.958)"><path class="d" d="M2067.012,1987.135a4.329,4.329,0,0,1-8.658,0,4.235,4.235,0,0,1,.3-1.567,4.326,4.326,0,0,0,8.064,0A4.24,4.24,0,0,1,2067.012,1987.135Z" transform="translate(-2058.354 -1985.568)"/></g><g transform="translate(40.142 8.401)"><path class="d" d="M2051.477,1942.123A5.125,5.125,0,1,1,2056.6,1937,5.131,5.131,0,0,1,2051.477,1942.123Zm0-8.66a3.535,3.535,0,1,0,3.535,3.535A3.539,3.539,0,0,0,2051.477,1933.463Z" transform="translate(-2046.352 -1931.873)"/></g><g transform="translate(26.718 0.265)"><path class="d" d="M1850.009,1835.592a.8.8,0,0,1-.795-.8v-10.22l-5.484-4.128v-10.584a.8.8,0,0,1,1.59,0v9.791l5.483,4.128V1834.8A.8.8,0,0,1,1850.009,1835.592Z" transform="translate(-1843.731 -1809.07)"/></g></g><g transform="translate(12.403 68.773)"><path class="d" d="M1062.764,1301.875a4.655,4.655,0,0,1-.932-2.4,6.41,6.41,0,0,1,.246-2.544l.214-.6a6.075,6.075,0,0,1,.269-.57,7.222,7.222,0,0,1,.657-1.058,10.891,10.891,0,0,1,.808-.922,10.361,10.361,0,0,1,.948-.76.33.33,0,0,1,.491.4l-.013.031c-.156.362-.343.687-.518,1.014-.154.338-.332.657-.477.985s-.3.646-.41.978c-.136.323-.229.653-.331.981a9.793,9.793,0,0,0-.332,2l-.015.255c0,.085,0,.169,0,.255a5.134,5.134,0,0,0,.015.516c.015.339.071.708.114,1.022l.012.094a.42.42,0,0,1-.746.318Z" transform="translate(-1061.795 -1292.966)"/></g><g transform="translate(133.022 68.773)"><path class="d" d="M2884.41,1301.468c.042-.314.1-.683.114-1.022a5.065,5.065,0,0,0,.015-.516c0-.086,0-.171,0-.255l-.016-.255a9.761,9.761,0,0,0-.333-2c-.1-.327-.194-.658-.331-.981-.107-.332-.273-.646-.41-.978s-.323-.647-.478-.985c-.176-.327-.362-.652-.518-1.014l-.012-.029a.33.33,0,0,1,.172-.433.334.334,0,0,1,.318.031,10.372,10.372,0,0,1,.948.76,10.87,10.87,0,0,1,.808.922,7.219,7.219,0,0,1,.657,1.058c.092.189.195.372.269.57l.214.6a6.4,6.4,0,0,1,.246,2.544,4.649,4.649,0,0,1-.932,2.4.421.421,0,0,1-.746-.317Z" transform="translate(-2882.417 -1292.971)"/></g><g transform="translate(23.092 77.801)"><path class="b" d="M1223.93,1451.222a.8.8,0,0,1-.441-1.457c9.869-6.56,11.1-19.664,11.113-19.8a.795.795,0,0,1,1.584.135c-.048.568-1.3,13.993-11.817,20.986A.793.793,0,0,1,1223.93,1451.222Z" transform="translate(-1223.134 -1429.242)"/></g><g transform="translate(113.138 77.802)"><path class="b" d="M2594.541,1451.226a.792.792,0,0,1-.439-.133c-10.52-6.993-11.769-20.418-11.817-20.986a.795.795,0,0,1,1.584-.135c.011.132,1.244,13.236,11.113,19.8a.8.8,0,0,1-.441,1.457Z" transform="translate(-2582.282 -1429.246)"/></g></g><g transform="translate(100.81 123.292)"><path class="j" d="M2396.212,2115.869" transform="translate(-2396.212 -2115.869)"/></g><g transform="translate(30.474 108.592)"><path class="k" d="M1337.794,1914.5c-6.247-4.509-2.119-9.172,1.253-6.972-.406-.766.792-1.7,1.647-1.288-.414-4.6,4.33-6.5,6.8-3.127-.668-.911,1.707-2.865,3.356-1.6,1.436-7.714,11.974-9.062,16.393-3.159.017-1.2,3.042-1.184,3.052.039-.023-2.616,6.321-4.553,8.23.654.559-.776,1.12-2.4,3.285-2.385,2.021.012,3.817,1.1,3.4,2.178,2.52-6.549,14.97-6.549,17.313.56-.178-.54,1.889-1.128,2.835-.858a1.7,1.7,0,0,1,.594,2.929c10.685-3.293,6.255,4.378,6.255,4.378a8.539,8.539,0,0,1,2.747.921c.428.438.066,1.265.066,1.265s7.96-1.34,2.307,8.067c-30.194,50.246-84.01,2.2-79.126-1.4" transform="translate(-1334.556 -1893.991)"/></g><g class="l" transform="translate(30.474 108.592)"><g transform="translate(0)"><path class="a" d="M1405.935,1904.182a1.7,1.7,0,0,0-.6-2.93c-.945-.269-3.013.319-2.835.859-2.342-7.109-14.793-7.109-17.312-.562.415-1.078-1.381-2.164-3.4-2.177-2.167-.013-2.726,1.608-3.285,2.386-1.906-5.2-8.232-3.276-8.232-.668-.031-1.209-3.034-1.221-3.052-.026-4.417-5.9-14.955-4.553-16.393,3.159-1.647-1.261-4.023.695-3.355,1.605-2.472-3.373-7.216-1.478-6.8,3.127-.854-.415-2.052.522-1.647,1.288a2.825,2.825,0,0,0-4.177.856c-1.217-3.057,1.7-5.206,4.206-3.572-.4-.768.794-1.705,1.647-1.29-.412-4.6,4.329-6.5,6.8-3.128-.668-.911,1.707-2.864,3.355-1.6,1.436-7.715,11.976-9.062,16.393-3.159.018-1.2,3.042-1.185,3.052.039-.023-2.616,6.321-4.553,8.229.653.561-.775,1.12-2.4,3.284-2.386,2.023.013,3.82,1.1,3.4,2.18,2.519-6.551,14.97-6.551,17.312.559-.178-.54,1.89-1.128,2.835-.856a1.7,1.7,0,0,1,.6,2.929c7.673-2.365,7.551.924,6.871,2.966C1412.222,1903.341,1410.4,1902.806,1405.935,1904.182Z" transform="translate(-1334.56 -1893.989)"/></g></g><g transform="translate(108.104 120.632)"><path class="a" d="M2513.243,2081.957c-.872-2.057-4.122-1.511-4.122-1.511s.363-.828-.065-1.263a8.482,8.482,0,0,0-2.747-.922,7.772,7.772,0,0,0,.88-2.53,5.145,5.145,0,0,1,1.9.734c.428.438.065,1.266.065,1.266S2514.695,2076.8,2513.243,2081.957Z" transform="translate(-2506.309 -2075.73)"/></g><g transform="translate(108.133 119.034)"><path class="a" d="M2507.593,2053.21c-.475-.118-.851-.188-.851-.188a8.565,8.565,0,0,0,.616-1.41A2.588,2.588,0,0,1,2507.593,2053.21Z" transform="translate(-2506.742 -2051.612)"/></g><g transform="translate(29.407 107.531)"><path class="d" d="M1366.56,1924.97a43.953,43.953,0,0,1-6.509-.494c-19.417-2.909-36.8-17.862-38.153-23.314a2.781,2.781,0,0,1-.081-.994c-3.569-2.722-3.848-5.534-2.889-7.29a3.77,3.77,0,0,1,4.347-1.785,2.481,2.481,0,0,1,1.32-.885,5.162,5.162,0,0,1,2.909-4.425,4.554,4.554,0,0,1,4.487.444,3.62,3.62,0,0,1,3.1-1.1,9.348,9.348,0,0,1,6.893-6.149,10.909,10.909,0,0,1,10.231,2.8,3.567,3.567,0,0,1,2.632-.153,5.66,5.66,0,0,1,8.76.422,3.96,3.96,0,0,1,3.176-1.4,5.988,5.988,0,0,1,3.429,1.029c1.912-2.5,5.507-3.93,9.36-3.664,3.774.257,6.851,2.028,8.35,4.771a4.931,4.931,0,0,1,2.7-.215,2.757,2.757,0,0,1,1.969,2.406c2.924-.646,4.847-.365,5.866.851.837,1,.912,2.519.229,4.328a4.146,4.146,0,0,1,2,.921,1.771,1.771,0,0,1,.467.883,4.217,4.217,0,0,1,3.74,1.826c1.026,1.732.476,4.32-1.682,7.91C1392.089,1920.2,1378.063,1924.97,1366.56,1924.97Zm-42.641-24.473c-.009,2.192,10.81,13.725,26.781,19.419,14.683,5.235,35.4,6.134,50.692-19.318,2.306-3.838,1.94-5.291,1.675-5.738-.458-.774-1.808-.806-2.367-.784a1.563,1.563,0,0,1-1.628-1.563,8.284,8.284,0,0,0-1.5-.456,1.563,1.563,0,0,1-1.073-2.171c.556-1.219.687-2.281.333-2.7-.183-.218-1.043-.861-4.445.016a1.562,1.562,0,0,1-1.92-1.83.652.652,0,0,0-.427-.766,3.17,3.17,0,0,0-1.647.276,1.58,1.58,0,0,1-1.237.1,1.562,1.562,0,0,1-.912-.822c-1.06-2.3-3.607-3.811-6.814-4.03-3.346-.226-6.4,1.027-7.785,3.2a1.611,1.611,0,0,1-1.232.738,1.533,1.533,0,0,1-1.28-.525,3.491,3.491,0,0,0-2.361-.772,1.993,1.993,0,0,0-1.889,1.115,1.588,1.588,0,0,1-1.379.713,1.543,1.543,0,0,1-1.307-.817,3.412,3.412,0,0,0-3.079-1.906,3.239,3.239,0,0,0-2.692,1.2,1.549,1.549,0,0,1-.963.752,1.579,1.579,0,0,1-1.181-.148,1.486,1.486,0,0,0-1.123,0,1.574,1.574,0,0,1-2.2-.145,8.711,8.711,0,0,0-8.48-2.5,7.14,7.14,0,0,0-5.49,5.151,1.568,1.568,0,0,1-2.06,1.073,1.459,1.459,0,0,0-1.5.56,1.575,1.575,0,0,1-1.106.734,1.552,1.552,0,0,1-1.253-.366,2.474,2.474,0,0,0-2.691-.472,3.123,3.123,0,0,0-1.679,2.985,1.558,1.558,0,0,1-1.5,1.544.369.369,0,0,0-.233.128,1.547,1.547,0,0,1-2,.848,1.691,1.691,0,0,0-2.18.674c-.528.967-.167,2.8,2.591,4.793l.027.02a1.06,1.06,0,0,1,.512,1.789Zm1.185-10.369h0Zm26.669-8.053h0Z" transform="translate(-1318.455 -1877.977)"/></g><g transform="translate(30.458 136.561)"><path class="m" d="M1349.99,2388.574q-3.979-.548-7.945-1.259l-1.235-11.379-6.493-59.781h10.057l.413,5.324,4.545,58.612.016.22Z" transform="translate(-1334.318 -2316.156)"/></g><g transform="translate(40.515 136.561)"><path class="a" d="M1502.9,2389.8q-5.6-.461-11.167-1.23l-.641-8.263-.016-.22-4.545-58.612-.413-5.324h13.354l.246,5.324,2.828,60.7.011.22Z" transform="translate(-1486.118 -2316.156)"/></g><g transform="translate(53.869 136.561)"><path class="m" d="M1702.187,2390.408q-5.545-.151-11.08-.6l-.344-7.407-.011-.22-2.828-60.7-.246-5.324h13.356l.082,5.324.933,60.056.005.381Z" transform="translate(-1687.678 -2316.156)"/></g><g transform="translate(67.225 136.561)"><path class="a" d="M1902.634,2316.156l-.082,5.324-.89,57.374-.005.368-.175,11.184q-5.526.155-11.051,0l-.133-8.491-.005-.381-.933-60.056-.082-5.324Z" transform="translate(-1889.278 -2316.156)"/></g><g transform="translate(79.429 136.561)"><path class="m" d="M2087.987,2316.156l-.249,5.324-2.367,50.86v.005l-.813,17.453q-5.534.457-11.08.607l.175-11.184.005-.368.89-57.374.082-5.324Z" transform="translate(-2073.477 -2316.156)"/></g><g transform="translate(90.509 136.561)"><path class="a" d="M2257.5,2316.156l-.411,5.324-2.793,36-.1,1.3-2.311,29.789q-5.569.771-11.167,1.232l.813-17.453v-.005l2.366-50.86.249-5.324Z" transform="translate(-2240.718 -2316.156)"/></g><g transform="translate(101.676 136.561)"><path class="m" d="M2424.948,2316.156l-2.027,18.673-5.7,52.487-1.993.336q-2.969.5-5.952.914l2.311-29.789.1-1.3,2.793-36,.411-5.324Z" transform="translate(-2409.278 -2316.156)"/></g><g transform="translate(29.171 134.525)"><path class="d" d="M1359.581,2362.856c-1.84,0-3.683-.025-5.518-.075-3.708-.1-7.455-.305-11.138-.608-3.765-.31-7.541-.726-11.226-1.236-2.621-.362-5.309-.787-7.986-1.265l-.782-.14-8.047-74.1h89.463l-8.045,74.107-2.784.47c-1.976.333-3.989.642-5.983.919-3.708.514-7.485.93-11.226,1.239-3.671.3-7.419.508-11.138.61C1363.321,2362.83,1361.453,2362.856,1359.581,2362.856Zm-34.713-5.133c2.39.418,4.782.792,7.122,1.114,3.647.5,7.384.917,11.11,1.223,3.644.3,7.352.5,11.022.6s7.359.1,10.992,0c3.682-.1,7.39-.3,11.022-.6,3.7-.305,7.44-.718,11.109-1.226,1.973-.273,3.966-.579,5.921-.909l1.2-.2,7.617-70.163h-84.737Z" transform="translate(-1314.885 -2285.433)"/></g><g transform="translate(49.436 117.011)"><path class="k" d="M1620.85,2027.347s-.475-2.227.986-3.249c2.01-1.407,3.6,1.661,3.907,1.625s.722-4.732,5.294-4.655c4.327.073,4.655,3.706,4.126,5.44" transform="translate(-1620.776 -2021.066)"/></g><g class="l" transform="translate(49.436 117.01)"><path class="a" d="M1633.989,2021.981a.913.913,0,0,1-.947,1.542,5.55,5.55,0,0,0-2.007-.37,4.791,4.791,0,0,0-4.771,3.34.92.92,0,0,1-.8.577h0a.9.9,0,0,1-.7-.264c-.715-.727-1.75-1.451-2.936-.622a2.322,2.322,0,0,0-.854,1.149l-.133.008s-.475-2.227.987-3.25c2.01-1.407,3.595,1.66,3.906,1.624s.72-4.731,5.295-4.655A4.677,4.677,0,0,1,1633.989,2021.981Z" transform="translate(-1620.774 -2021.058)"/></g><g transform="translate(85.278 117.011)"><path class="k" d="M2176.278,2027.347s.475-2.227-.986-3.249c-2.01-1.407-3.6,1.661-3.907,1.625s-.721-4.732-5.294-4.655c-4.327.073-4.655,3.706-4.126,5.44" transform="translate(-2161.774 -2021.066)"/></g><g class="l" transform="translate(85.998 117.01)"><path class="a" d="M2186.413,2027.341l-.1-.005a2.361,2.361,0,0,0-.88-1.222c-1.228-.859-2.3-.051-3.016.7a.812.812,0,0,1-.634.253h-.027a.8.8,0,0,1-.7-.512,4.837,4.837,0,0,0-4.822-3.472,5.153,5.153,0,0,0-2.411.563.8.8,0,0,1-1-1.219,4.316,4.316,0,0,1,3.408-1.367c4.571-.076,4.984,4.619,5.292,4.655s1.9-3.031,3.908-1.624C2186.888,2025.114,2186.413,2027.341,2186.413,2027.341Z" transform="translate(-2172.629 -2021.058)"/></g><g transform="translate(48.643 116.215)"><path class="d" d="M1609.66,2016.932a.8.8,0,0,1-.777-.629c-.024-.112-.563-2.757,1.307-4.067,1.74-1.218,3.238-.037,4.078.843a5.6,5.6,0,0,1,5.464-4.018h.128a4.962,4.962,0,0,1,4.195,1.894,5.39,5.39,0,0,1,.678,4.573.8.8,0,1,1-1.521-.464,3.845,3.845,0,0,0-.444-3.174,3.478,3.478,0,0,0-2.935-1.24h-.094c-2.986,0-3.8,2.424-4.2,3.6-.171.508-.333.989-.9,1.055-.5.06-.782-.274-1.143-.695-1.1-1.284-1.708-1.552-2.4-1.069-1,.7-.668,2.416-.664,2.433a.8.8,0,0,1-.612.944A.825.825,0,0,1,1609.66,2016.932Z" transform="translate(-1608.794 -2009.061)"/></g><g transform="translate(84.217 115.95)"><path class="d" d="M2161.318,2013.463a1.06,1.06,0,0,1-1.039-1.276c.007-.036.284-1.577-.556-2.166-.484-.338-.933-.273-2.047,1.024-.38.443-.738.863-1.375.786-.729-.086-.944-.722-1.116-1.234-.606-1.8-1.515-3.443-4.036-3.415a3.234,3.234,0,0,0-2.725,1.13,3.566,3.566,0,0,0-.4,2.941,1.06,1.06,0,0,1-2.028.619,5.663,5.663,0,0,1,.717-4.806,5.214,5.214,0,0,1,4.4-2h.13a5.8,5.8,0,0,1,5.56,3.82c.923-.862,2.428-1.793,4.136-.6a4.3,4.3,0,0,1,1.415,4.339A1.061,1.061,0,0,1,2161.318,2013.463Z" transform="translate(-2145.752 -2005.062)"/></g><g class="c" transform="translate(36.951 155.233)"><path class="d" d="M1510.686,2598l-5.7,52.487-1.993.337q-2.969.5-5.952.915-5.569.771-11.167,1.232-5.533.457-11.08.607-5.525.155-11.051,0-5.545-.151-11.08-.6-5.6-.461-11.167-1.23-3.979-.549-7.945-1.259l-1.235-11.379a40.2,40.2,0,0,0,8.522,4.155q.958.338,1.958.631a44.093,44.093,0,0,0,9.522,1.675c.379.027.76.048,1.148.063a54.656,54.656,0,0,0,10.144-.543l.382-.056a69.839,69.839,0,0,0,8.724-1.905c.631-.18,1.253-.376,1.868-.593.127-.045.257-.09.384-.141a38.292,38.292,0,0,0,10.529-5.923q.6-.469,1.19-.959a62,62,0,0,0,10.608-11.684q1.117-1.562,2.157-3.175A122.039,122.039,0,0,0,1510.686,2598Z" transform="translate(-1432.318 -2597.996)"/></g><g class="n" transform="translate(37.787 144.971)"><ellipse class="a" cx="7.066" cy="22.271" rx="7.066" ry="22.271" transform="translate(0 0.563) rotate(-2.285)"/></g><g class="c" transform="translate(30.354 135.587)"><path class="d" d="M1419.854,2301.455l-.538,4.96h-86.024l-.538-4.96Z" transform="translate(-1332.754 -2301.455)"/></g><g transform="translate(22.798 126.476)"><rect class="o" width="102.21" height="9.112" rx="4.556" transform="translate(0 0)"/></g><g class="c" transform="translate(22.799 128.945)"><path class="d" d="M1320.917,2202.341v1.9a3.6,3.6,0,0,1-3.606,3.605h-95a3.6,3.6,0,0,1-3.606-3.605v-1.9a3.564,3.564,0,0,1,.185-1.138,3.6,3.6,0,0,0,3.42,2.47h95a3.6,3.6,0,0,0,3.42-2.47A3.557,3.557,0,0,1,1320.917,2202.341Z" transform="translate(-1218.709 -2201.202)"/></g><g transform="translate(21.738 125.417)"><path class="d" d="M1302.36,2159.175h-95a4.672,4.672,0,0,1-4.667-4.667v-1.9a4.672,4.672,0,0,1,4.667-4.667h95a4.672,4.672,0,0,1,4.667,4.667v1.9A4.672,4.672,0,0,1,1302.36,2159.175Zm-95-9.112a2.549,2.549,0,0,0-2.547,2.547v1.9a2.549,2.549,0,0,0,2.547,2.546h95a2.549,2.549,0,0,0,2.547-2.546v-1.9a2.55,2.55,0,0,0-2.547-2.547Z" transform="translate(-1202.697 -2147.943)"/></g></g></g></svg>