<svg xmlns="http://www.w3.org/2000/svg" width="249.811" height="355.06" viewBox="0 0 249.811 355.06"><defs><style>.a{fill:#fff;}.b{fill:#313c8e;}.c{opacity:0.35;}.d{fill:#371a45;}.e{fill:none;stroke:#6b184e;stroke-linecap:round;stroke-miterlimit:10;stroke-width:27.197px;}.f{fill:#327bc4;}.g{opacity:0.7;}.h{fill:#111a28;}.i{fill:#22a7f0;}.j{fill:#f9a528;}.k{fill:#fcd57e;}.l{opacity:0.6;}.m{fill:#2cbad5;}.n{opacity:0.5;}.o{fill:#ffce00;}</style></defs><g transform="translate(0 0)"><g transform="translate(0 0)"><g transform="translate(0 0)"><g transform="translate(67.198 131.666)"><rect class="a" width="114.851" height="90.056" rx="45.028"/></g><g transform="translate(65.554 130.022)"><path class="b" d="M1568.191,1519.768h-87.775a15.2,15.2,0,0,1-15.182-15.182v-62.979a15.2,15.2,0,0,1,15.182-15.183h87.775a15.2,15.2,0,0,1,15.183,15.183v62.979A15.2,15.2,0,0,1,1568.191,1519.768Zm-87.775-90.056a11.908,11.908,0,0,0-11.894,11.895v62.979a11.907,11.907,0,0,0,11.894,11.894h87.775a11.908,11.908,0,0,0,11.894-11.894v-62.979a11.908,11.908,0,0,0-11.894-11.895Z" transform="translate(-1465.234 -1426.424)"/></g><g transform="translate(1.775 104.023)"><path class="a" d="M1130.954,1227.735c-11.1,14.464-34.255,29.363-61.713,40.683,0,0-5.172,55.471-13.793,83.915H971.969c-8.617-28.444-13.789-83.915-13.789-83.915-27.463-11.32-50.619-26.219-61.717-40.683-8.444-11-6.89-27.507-1.061-32.577,7.112-6.189,18.947,2.788,18.947,2.788s1.554-5.158,4.933-5.727c5.216-.883,5.354,12.457,7.227,13.873a131.592,131.592,0,0,0,26.193,15.982,93.491,93.491,0,0,0,9.754,3.813,151.613,151.613,0,0,0,29.136,6.264h44.235a153.445,153.445,0,0,0,28.386-6.015,94.416,94.416,0,0,0,10.5-4.062,131.581,131.581,0,0,0,26.193-15.982c1.874-1.416,2.011-14.757,7.227-13.873,3.383.568,4.932,5.727,4.932,5.727s11.84-8.976,18.952-2.788C1137.844,1200.228,1139.4,1216.734,1130.954,1227.735Z" transform="translate(-890.578 -1192.178)"/></g><g class="c" transform="translate(1.777 115.246)"><path class="d" d="M971.986,1442.226c-8.617-28.443-13.789-83.914-13.789-83.914-27.462-11.321-50.619-26.219-61.717-40.683a30.119,30.119,0,0,1-5.882-18.117c.9,3.76,1.73,8.274,5,10.713,8.536,6.358,11.423-20.587,19.722-16.508.77.379-3.1,2.46-4.382,9.968-1.511,8.857,1.376,14.053,4.382,18.384,6.646,9.574,23.286,16.934,36.882,22.9a26.413,26.413,0,0,1,15.619,21.13c2.163,18.514,6.389,49.678,12.162,68.727Z" transform="translate(-890.598 -1293.294)"/></g><g class="c" transform="translate(158.648 115.246)"><path class="d" d="M2312.022,1442.226c8.617-28.443,13.789-83.914,13.789-83.914,27.462-11.321,50.618-26.219,61.717-40.683a30.117,30.117,0,0,0,5.882-18.117c-.9,3.76-1.731,8.274-5,10.713-8.536,6.358-11.423-20.587-19.722-16.508-.77.379,3.1,2.46,4.382,9.968,1.511,8.857-1.376,14.053-4.382,18.384-6.646,9.574-23.286,16.934-36.882,22.9a26.413,26.413,0,0,0-15.619,21.13c-2.163,18.514-6.389,49.678-12.162,68.727Z" transform="translate(-2304.021 -1293.294)"/></g><g transform="translate(0 102.237)"><path class="b" d="M1041.231,1339.8a1.778,1.778,0,0,1-1.7-2.291c8.469-27.946,13.671-83.014,13.723-83.567l.1-1.068.992-.409c28.069-11.571,50.3-26.194,60.983-40.12,7.808-10.175,6.356-25.76,1.306-30.155-5.934-5.166-16.607,2.783-16.714,2.865l-2.037,1.538-.736-2.443c-.324-1.062-1.672-4.177-3.525-4.489-1.749-.3-2.943,4.971-3.587,7.8-.726,3.189-1.156,4.892-2.272,5.738a134.929,134.929,0,0,1-26.521,16.18c-10.422,4.81-24.053,8.347-39.42,10.229l-.216.013H977.265l-.107-.013c-15.367-1.881-29-5.419-39.42-10.229a134.9,134.9,0,0,1-26.522-16.18c-1.115-.845-1.545-2.549-2.271-5.738-.644-2.829-1.841-8.1-3.586-7.8s-3.123,3.151-3.525,4.489l-.736,2.449-2.038-1.545c-.106-.079-10.778-8.029-16.713-2.863-5.05,4.4-6.5,19.98,1.307,30.155,10.686,13.926,32.914,28.549,60.983,40.12l.992.409.1,1.068c.051.553,5.254,55.621,13.723,83.567a1.776,1.776,0,0,1-3.4,1.03c-7.912-26.11-12.982-75.334-13.757-83.2-28.165-11.739-50.531-26.591-61.459-40.832-8.694-11.33-7.7-29.008-.821-35,6.342-5.519,15.4-.99,19.3,1.437.944-1.876,2.68-4.322,5.448-4.789,5.055-.86,6.549,5.717,7.641,10.515a21.6,21.6,0,0,0,1.055,3.772,128.834,128.834,0,0,0,25.764,15.709c10.068,4.647,23.294,8.074,38.256,9.915H1021.5c14.962-1.841,28.188-5.268,38.256-9.915a128.83,128.83,0,0,0,25.763-15.709,21.632,21.632,0,0,0,1.054-3.772c1.092-4.8,2.588-11.373,7.641-10.515,2.769.467,4.5,2.913,5.448,4.789,3.9-2.426,12.961-6.955,19.3-1.437,6.881,5.989,7.874,23.667-.821,35-10.928,14.241-33.294,29.093-61.459,40.832-.775,7.866-5.845,57.09-13.757,83.2A1.777,1.777,0,0,1,1041.231,1339.8Z" transform="translate(-874.586 -1176.082)"/></g><g transform="translate(147.953 171.562)"><path class="e" d="M2207.657,1800.707" transform="translate(-2207.657 -1800.707)"/></g><g transform="translate(34.261 0)"><g transform="translate(149.161 65.441)"><path class="a" d="M2534.322,887.472h0a1.3,1.3,0,0,1-1.4-1.2l-2.8-37.421a1.3,1.3,0,0,1,1.2-1.4h0a13.667,13.667,0,0,1,14.651,12.608l.956,12.761A13.667,13.667,0,0,1,2534.322,887.472Z" transform="translate(-2529.8 -847.096)"/><path class="d" d="M2531.667,885.246a1.622,1.622,0,0,1-1.615-1.5l-2.8-37.421a1.623,1.623,0,0,1,1.5-1.738,13.985,13.985,0,0,1,14.992,12.9l.957,12.761a13.987,13.987,0,0,1-12.9,14.992h0C2531.749,885.244,2531.708,885.246,2531.667,885.246Zm-1.855-40.061q-.507,0-1.019.038a.983.983,0,0,0-.907,1.054l2.8,37.421a.983.983,0,0,0,1.054.907h0a13.348,13.348,0,0,0,12.314-14.308l-.956-12.761a13.35,13.35,0,0,0-13.29-12.352Z" transform="translate(-2527.244 -844.547)"/></g><g class="c" transform="translate(151.538 85.183)"><path class="d" d="M2562.964,1022.426l.45,5.985a13.674,13.674,0,0,1-12.61,14.652,1.306,1.306,0,0,1-1.4-1.2l-.749-9.948a1.306,1.306,0,0,0,1.24.682l.887-.069A13.656,13.656,0,0,0,2562.964,1022.426Z" transform="translate(-2548.659 -1022.426)"/></g><g transform="translate(147.704 63.984)"><path class="b" d="M2520,875.03a3.078,3.078,0,0,1-3.064-2.849l-2.8-37.42a3.082,3.082,0,0,1,2.84-3.3,15.443,15.443,0,0,1,16.554,14.246l.956,12.761a15.441,15.441,0,0,1-14.245,16.553h0C2520.152,875.027,2520.074,875.03,2520,875.03Zm-.029-3.551h0Zm-2.262-36.5,2.732,36.458a11.892,11.892,0,0,0,10.5-12.7l-.956-12.761a11.892,11.892,0,0,0-12.275-11Z" transform="translate(-2514.119 -831.417)"/></g><g transform="translate(14.203 74.729)"><path class="a" d="M1326.774,931.113h0a1.3,1.3,0,0,1,1.4,1.2l2.8,37.421a1.3,1.3,0,0,1-1.2,1.4h0a13.667,13.667,0,0,1-14.65-12.608l-.956-12.761A13.668,13.668,0,0,1,1326.774,931.113Z" transform="translate(-1313.808 -930.79)"/><path class="d" d="M1326.176,968.93a13.987,13.987,0,0,1-13.925-12.942l-.956-12.761a14,14,0,0,1,12.9-14.992h0a1.621,1.621,0,0,1,1.738,1.5l2.8,37.42a1.623,1.623,0,0,1-1.5,1.739Q1326.708,968.929,1326.176,968.93Zm-1.931-40.059a13.363,13.363,0,0,0-12.313,14.308l.956,12.761a13.348,13.348,0,0,0,14.308,12.313.986.986,0,0,0,.908-1.054l-2.8-37.421a.987.987,0,0,0-1.055-.908Z" transform="translate(-1311.255 -928.23)"/></g><g class="c" transform="translate(15.115 97.088)"><path class="d" d="M1334.952,1135.9l.777,10.382a1.306,1.306,0,0,1-1.2,1.4,13.662,13.662,0,0,1-14.648-12.606l-.4-5.377a13.672,13.672,0,0,0,13.016,7.075l1.365-.1A1.318,1.318,0,0,0,1334.952,1135.9Z" transform="translate(-1319.473 -1129.691)"/></g><g transform="translate(12.746 73.274)"><path class="b" d="M1314.5,958.735a15.444,15.444,0,0,1-15.375-14.29l-.956-12.761a15.461,15.461,0,0,1,14.246-16.554h0a3.094,3.094,0,0,1,3.3,2.841l2.8,37.42a3.082,3.082,0,0,1-2.84,3.3Q1315.091,958.735,1314.5,958.735Zm-2.291-40.018a11.906,11.906,0,0,0-10.5,12.7l.956,12.761a11.891,11.891,0,0,0,12.275,11Zm.471-.044h0Z" transform="translate(-1298.128 -915.123)"/></g><g class="c" transform="translate(39.391 137.734)"><path class="d" d="M1639.955,1496.165a63.95,63.95,0,0,1-101.757-.249,151.6,151.6,0,0,0,29.136,6.264h44.235A153.481,153.481,0,0,0,1639.955,1496.165Z" transform="translate(-1538.198 -1495.916)"/></g><g transform="translate(0)"><circle class="a" cx="63.947" cy="63.947" r="63.947" transform="translate(0 90.434) rotate(-45)"/><path class="d" d="M1483.326,619.224a64.266,64.266,0,0,1-.24-128.531h.25a64.266,64.266,0,0,1,.237,128.531Zm.011-127.893h-.248a63.627,63.627,0,0,0,.237,127.254h.245a63.627,63.627,0,0,0-.234-127.254Z" transform="translate(-1392.896 -464.524)"/></g><g class="c" transform="translate(26.485 81.342)"><path class="d" d="M1549.165,987.817a63.949,63.949,0,1,1-127.248,9.335c0-1.016.015-2.032.06-3.033a63.95,63.95,0,0,0,127.188-6.3Z" transform="translate(-1421.916 -987.817)"/></g><g transform="translate(24.712 24.712)"><path class="b" d="M1471.658,609.012a65.722,65.722,0,0,1-.245-131.444h.256a65.722,65.722,0,0,1,.242,131.444Zm.011-127.893h-.242a62.171,62.171,0,0,0,.232,124.341h.239a62.171,62.171,0,0,0-.229-124.341Z" transform="translate(-1405.94 -477.567)"/></g><g transform="translate(27.096 46.179)"><path class="f" d="M1554.51,716.644a57.359,57.359,0,0,1-10.369,33.945c-5.071,7.3-26.239,20.318-52.667,21.055-24.5.684-47.051-11.962-52.394-19.069a57.357,57.357,0,0,1-11.644-33.529c-.626-33.108,27.56-47.371,62.652-48.034S1553.885,683.536,1554.51,716.644Z" transform="translate(-1427.425 -670.988)"/></g><g transform="translate(25.32 44.402)"><path class="b" d="M1475.291,759.216c-24.616,0-46.381-12.521-51.858-19.8a59.069,59.069,0,0,1-12-34.562c-.308-16.282,5.985-28.96,18.7-37.682,11.083-7.6,26.882-11.806,45.691-12.161s34.757,3.25,46.118,10.426c13.039,8.236,19.806,20.667,20.113,36.949h0a59.069,59.069,0,0,1-10.686,34.992c-5.014,7.221-26.023,21.034-54.076,21.817C1476.628,759.207,1475.957,759.216,1475.291,759.216Zm2.849-100.681q-1.175,0-2.247.021c-18.57.351-61.679,5.558-60.911,46.226a55.544,55.544,0,0,0,11.288,32.5c5.085,6.762,27.063,19.042,50.926,18.36,26.457-.738,46.747-13.794,51.258-20.292a55.546,55.546,0,0,0,10.053-32.9h0C1537.769,663.344,1497.728,658.535,1478.141,658.535Z" transform="translate(-1411.422 -654.98)"/></g><g class="g" transform="translate(123.545 75.247)"><ellipse class="a" cx="11.317" cy="8.2" rx="11.317" ry="8.2" transform="translate(0 22.343) rotate(-80.812)"/></g><g class="g" transform="translate(118.037 104.054)"><ellipse class="a" cx="5.194" cy="4.457" rx="5.194" ry="4.457" transform="translate(0 9.928) rotate(-72.87)"/></g><g class="c" transform="translate(64.845 61.181)"><path class="h" d="M1843.943,806.166c7.907,7.265,12.688,17.354,12.941,30.651a57.385,57.385,0,0,1-10.367,33.947c-5.073,7.3-26.242,20.317-52.67,21.057a78.882,78.882,0,0,1-26.3-3.978c32.467-1.6,58.25-17.571,64.538-26.629a72.777,72.777,0,0,0,13.159-43.081A64.731,64.731,0,0,0,1843.943,806.166Z" transform="translate(-1767.548 -806.166)"/></g><g transform="translate(29.585 37.761)"><path class="b" d="M1451.625,625.064a1.774,1.774,0,0,1-1.448-2.8c10.934-16.721,32.556-26.6,59.332-27.106,26.581-.488,48.547,8.236,60.281,23.978a1.776,1.776,0,0,1-2.412,2.575l-.209-.147-.17-.229c-11.027-14.859-31.953-23.091-57.424-22.625-25.607.485-46.184,9.8-56.455,25.544l-.13.175A1.783,1.783,0,0,1,1451.625,625.064Z" transform="translate(-1449.851 -595.141)"/></g><g class="g" transform="translate(38.386 55.037)"><path class="a" d="M1532.509,809.428s-10.871-32.468,6.485-45.816,42.682-13.774,42.12-12.139c0,0-27.908,7.317-38.459,29.689C1534.52,798.414,1532.509,809.428,1532.509,809.428Z" transform="translate(-1529.147 -750.803)"/></g></g><g transform="translate(62.803 172.046)"><g transform="translate(1.777 15.33)"><path class="a" d="M1488.912,1958.761c-7.057,2.857-17.979,2.259-25.425,1.358a8,8,0,0,1-6.943-9.112h0a7.993,7.993,0,0,1,8.275-6.822c6.965.326,17.411.479,24.027-.989" transform="translate(-1456.458 -1943.198)"/></g><g class="c" transform="translate(1.779 20.605)"><path class="d" d="M1488.927,2001.011c-7.059,2.861-17.981,2.258-25.426,1.362a8.01,8.01,0,0,1-6.121-11.649,7.98,7.98,0,0,0,6.121,4.229c7.432.9,18.335,1.5,25.4-1.343Z" transform="translate(-1456.472 -1990.724)"/></g><g transform="translate(0 13.527)"><path class="d" d="M1460.649,1948.2a98.168,98.168,0,0,1-11.61-.758,9.776,9.776,0,0,1,1.629-19.469c7.264.341,17.247.451,23.559-.948.961-.214,3.348-.215,4.771,4.36,1.46,4.694,1.307,12.574-3.654,14.583C1471.218,1947.635,1465.916,1948.2,1460.649,1948.2ZM1450.2,1931.51a6.225,6.225,0,0,0-.739,12.4c10.663,1.289,19.38.849,24.545-1.241,1.632-.66,2.06-3.3,2.168-4.407.36-3.67-.782-6.98-1.465-7.716-6.7,1.421-16.837,1.313-24.212.968C1450.4,1931.513,1450.3,1931.51,1450.2,1931.51Z" transform="translate(-1440.445 -1926.952)"/></g><g transform="translate(88.212 15.33)"><path class="a" d="M2235.245,1958.761c7.057,2.857,17.979,2.259,25.425,1.358a8,8,0,0,0,6.943-9.112h0a7.994,7.994,0,0,0-8.276-6.822c-6.964.326-17.411.479-24.026-.989" transform="translate(-2235.245 -1943.198)"/></g><g class="c" transform="translate(88.209 20.568)"><path class="d" d="M2260.645,2002.075c-7.445.9-18.367,1.5-25.426-1.362l.031-7.47c7.059,2.843,17.963,2.246,25.4,1.344a7.957,7.957,0,0,0,6.1-4.2,8,8,0,0,1-6.1,11.687Z" transform="translate(-2235.219 -1990.388)"/></g><g transform="translate(83.087 13.527)"><path class="d" d="M2208.223,1948.2c-5.267,0-10.568-.562-14.694-2.233h0c-4.962-2.009-5.115-9.889-3.655-14.583,1.423-4.575,3.811-4.573,4.771-4.36,6.313,1.4,16.3,1.288,23.559.948a9.776,9.776,0,0,1,1.629,19.47A98.207,98.207,0,0,1,2208.223,1948.2Zm-14.065-17.647c-.683.735-1.824,4.045-1.465,7.716.109,1.1.537,3.747,2.169,4.407,5.165,2.09,13.881,2.533,24.544,1.241a6.225,6.225,0,0,0-1.036-12.4C2210.995,1931.864,2200.857,1931.972,2194.158,1930.551Z" transform="translate(-2189.07 -1926.953)"/></g><g transform="translate(28.182 1.778)"><path class="a" d="M1757.126,1829.5v24.941a8.441,8.441,0,0,1-8.415,8.415h-45.933a8.44,8.44,0,0,1-8.409-8.415V1829.5a8.435,8.435,0,0,1,8.409-8.409h45.933a8.433,8.433,0,0,1,8.415,8.409Z" transform="translate(-1694.369 -1821.089)"/></g><g class="c" transform="translate(28.182 5.111)"><path class="d" d="M1757.126,1856.2v24.941a8.441,8.441,0,0,1-8.415,8.415h-45.933a8.44,8.44,0,0,1-8.409-8.415v-9.33c9.585,7.116,30.5,12.054,43.576,1.406,10.368-8.446,15.251-16.892,17.465-22.093A8.349,8.349,0,0,1,1757.126,1856.2Z" transform="translate(-1694.369 -1851.126)"/></g><g transform="translate(26.406)"><path class="d" d="M1734.491,1850.39h-45.934a10.2,10.2,0,0,1-10.187-10.187v-24.944a10.2,10.2,0,0,1,10.187-10.187h45.934a10.2,10.2,0,0,1,10.187,10.187V1840.2A10.2,10.2,0,0,1,1734.491,1850.39Zm-45.934-41.766a6.643,6.643,0,0,0-6.635,6.635V1840.2a6.643,6.643,0,0,0,6.635,6.635h45.934a6.643,6.643,0,0,0,6.635-6.635v-24.944a6.642,6.642,0,0,0-6.635-6.635Z" transform="translate(-1678.371 -1805.072)"/></g><g transform="translate(68.579 15.405)"><circle class="i" cx="7.253" cy="7.253" r="7.253"/></g><g class="c" transform="translate(68.579 20.033)"><path class="d" d="M2072.858,1988.193a7.252,7.252,0,0,1-14.5,0,7.093,7.093,0,0,1,.5-2.625,7.248,7.248,0,0,0,13.51,0A7.108,7.108,0,0,1,2072.858,1988.193Z" transform="translate(-2058.354 -1985.568)"/></g><g transform="translate(67.247 14.073)"><path class="d" d="M2054.937,1949.044a8.585,8.585,0,1,1,8.585-8.585A8.595,8.595,0,0,1,2054.937,1949.044Zm0-14.507a5.921,5.921,0,1,0,5.921,5.922A5.928,5.928,0,0,0,2054.937,1934.537Z" transform="translate(-2046.352 -1931.873)"/></g><g transform="translate(44.759 0.444)"><path class="d" d="M1854.249,1853.5a1.332,1.332,0,0,1-1.332-1.333v-17.121l-9.187-6.916V1810.4a1.332,1.332,0,1,1,2.664,0v16.4l9.186,6.916v18.449A1.332,1.332,0,0,1,1854.249,1853.5Z" transform="translate(-1843.731 -1809.07)"/></g></g><g transform="translate(20.778 115.21)"><path class="d" d="M1063.418,1307.891a7.8,7.8,0,0,1-1.561-4.017,10.737,10.737,0,0,1,.412-4.261l.359-1a10.1,10.1,0,0,1,.45-.955,12.086,12.086,0,0,1,1.1-1.773,18.191,18.191,0,0,1,1.353-1.545,17.37,17.37,0,0,1,1.588-1.273.553.553,0,0,1,.823.67l-.023.052c-.261.607-.574,1.151-.868,1.7-.259.566-.555,1.1-.8,1.65-.229.556-.507,1.082-.687,1.639-.228.541-.384,1.095-.554,1.643a16.413,16.413,0,0,0-.557,3.351l-.026.428c0,.142.007.284,0,.428a8.6,8.6,0,0,0,.026.865c.024.568.119,1.187.19,1.713l.021.157a.7.7,0,0,1-1.25.532Z" transform="translate(-1061.795 -1292.966)"/></g><g transform="translate(222.842 115.21)"><path class="d" d="M2885.756,1307.206c.071-.526.166-1.144.19-1.712a8.528,8.528,0,0,0,.025-.865c-.005-.144,0-.286,0-.428l-.026-.428a16.355,16.355,0,0,0-.557-3.351c-.17-.548-.326-1.1-.554-1.643-.18-.557-.458-1.083-.686-1.639-.245-.549-.542-1.084-.8-1.65-.294-.548-.607-1.092-.868-1.7l-.021-.049a.552.552,0,0,1,.289-.726.56.56,0,0,1,.533.053,17.4,17.4,0,0,1,1.587,1.273,18.159,18.159,0,0,1,1.353,1.545,12.086,12.086,0,0,1,1.1,1.772,10.519,10.519,0,0,1,.451.955l.358,1a10.723,10.723,0,0,1,.412,4.261,7.789,7.789,0,0,1-1.561,4.016.7.7,0,0,1-1.25-.531Z" transform="translate(-2882.417 -1292.971)"/></g><g transform="translate(38.684 130.334)"><path class="b" d="M1224.467,1466.064a1.332,1.332,0,0,1-.739-2.441c16.533-10.99,18.6-32.942,18.616-33.163a1.332,1.332,0,0,1,2.654.225c-.08.952-2.173,23.442-19.8,35.156A1.327,1.327,0,0,1,1224.467,1466.064Z" transform="translate(-1223.134 -1429.242)"/></g><g transform="translate(189.531 130.335)"><path class="b" d="M2602.818,1466.067a1.327,1.327,0,0,1-.736-.222c-17.622-11.715-19.715-34.2-19.8-35.156a1.331,1.331,0,0,1,2.653-.226c.019.221,2.084,22.173,18.617,33.163a1.332,1.332,0,0,1-.739,2.441Z" transform="translate(-2582.282 -1429.246)"/></g></g><g transform="translate(168.88 206.54)"><path class="j" d="M2396.212,2115.869" transform="translate(-2396.212 -2115.869)"/></g><g transform="translate(51.05 181.915)"><path class="k" d="M1339.981,1928.35c-10.466-7.553-3.55-15.365,2.1-11.679-.68-1.283,1.327-2.853,2.76-2.158-.693-7.711,7.253-10.89,11.4-5.238-1.119-1.527,2.86-4.8,5.621-2.688,2.406-12.923,20.059-15.18,27.462-5.293.028-2.011,5.1-1.984,5.113.066-.039-4.383,10.59-7.627,13.786,1.095.937-1.3,1.876-4.017,5.5-4,3.386.021,6.4,1.843,5.7,3.649,4.221-10.971,25.079-10.972,29,.938-.3-.905,3.164-1.89,4.75-1.437a2.841,2.841,0,0,1,1,4.907c17.9-5.517,10.479,7.334,10.479,7.334s3.774.7,4.6,1.543c.717.733.111,2.119.111,2.119s13.334-2.244,3.865,13.513c-50.582,84.174-140.735,3.693-132.554-2.348" transform="translate(-1334.556 -1893.991)"/></g><g class="l" transform="translate(51.051 181.915)"><g transform="translate(0)"><path class="a" d="M1454.129,1911.064a2.842,2.842,0,0,0-1-4.908c-1.583-.45-5.047.534-4.75,1.439-3.923-11.91-24.781-11.91-29-.941.7-1.806-2.314-3.625-5.7-3.647-3.63-.022-4.566,2.694-5.5,4-3.193-8.712-13.79-5.489-13.79-1.12-.052-2.025-5.082-2.046-5.113-.043-7.4-9.889-25.052-7.628-27.462,5.292-2.76-2.113-6.74,1.163-5.62,2.689-4.142-5.651-12.089-2.475-11.4,5.239-1.43-.7-3.438.875-2.76,2.157-2.747-1.793-5.8-.866-7,1.435-2.038-5.122,2.852-8.721,7.046-5.983-.678-1.286,1.329-2.856,2.76-2.16-.691-7.711,7.252-10.891,11.4-5.24-1.12-1.527,2.86-4.8,5.62-2.686,2.405-12.924,20.062-15.181,27.462-5.292.031-2.012,5.1-1.986,5.113.066-.039-4.383,10.589-7.628,13.786,1.093.94-1.3,1.876-4.019,5.5-4,3.39.022,6.4,1.845,5.7,3.652,4.221-10.973,25.079-10.973,29,.936-.3-.9,3.167-1.889,4.75-1.434a2.842,2.842,0,0,1,1,4.907c12.854-3.962,12.649,1.548,11.511,4.969C1464.661,1909.655,1461.6,1908.759,1454.129,1911.064Z" transform="translate(-1334.56 -1893.989)"/></g></g><g transform="translate(181.099 202.086)"><path class="a" d="M2517.926,2086.161c-1.461-3.447-6.906-2.532-6.906-2.532s.608-1.387-.11-2.117c-.826-.849-4.6-1.545-4.6-1.545a13.025,13.025,0,0,0,1.474-4.238,8.618,8.618,0,0,1,3.175,1.229c.717.735.109,2.121.109,2.121S2520.357,2077.519,2517.926,2086.161Z" transform="translate(-2506.309 -2075.73)"/></g><g transform="translate(181.147 199.409)"><path class="a" d="M2508.167,2054.289c-.8-.2-1.426-.315-1.426-.315a14.322,14.322,0,0,0,1.032-2.362A4.333,4.333,0,0,1,2508.167,2054.289Z" transform="translate(-2506.742 -2051.612)"/></g><g transform="translate(49.263 180.138)"><path class="d" d="M1399.042,1956.7a73.625,73.625,0,0,1-10.9-.827c-32.527-4.873-61.645-29.923-63.915-39.056a4.658,4.658,0,0,1-.135-1.665c-5.978-4.56-6.446-9.271-4.839-12.211a6.316,6.316,0,0,1,7.282-2.99,4.157,4.157,0,0,1,2.211-1.483,8.648,8.648,0,0,1,4.874-7.413,7.629,7.629,0,0,1,7.517.744,6.064,6.064,0,0,1,5.195-1.851,15.661,15.661,0,0,1,11.548-10.3,18.275,18.275,0,0,1,17.139,4.7,5.977,5.977,0,0,1,4.409-.256,9.482,9.482,0,0,1,14.676.708,6.634,6.634,0,0,1,5.321-2.349,10.032,10.032,0,0,1,5.745,1.723c3.2-4.192,9.225-6.584,15.68-6.138,6.323.431,11.478,3.4,13.989,7.992a8.259,8.259,0,0,1,4.515-.36,4.618,4.618,0,0,1,3.3,4.031c4.9-1.081,8.12-.612,9.828,1.426,1.4,1.672,1.529,4.22.384,7.251,2.188.591,2.941,1.127,3.348,1.543a2.969,2.969,0,0,1,.783,1.479c2.927.078,5.133,1.147,6.265,3.059,1.718,2.9.8,7.236-2.818,13.252C1441.807,1948.7,1418.312,1956.7,1399.042,1956.7Zm-71.434-41c-.015,3.671,18.11,22.993,44.865,32.532,24.6,8.77,59.3,10.276,84.92-32.363,3.863-6.429,3.249-8.864,2.806-9.612-.767-1.3-3.028-1.349-3.965-1.313a2.619,2.619,0,0,1-2.727-2.618,13.88,13.88,0,0,0-2.513-.764,2.618,2.618,0,0,1-1.8-3.636c.932-2.043,1.15-3.821.557-4.528-.307-.365-1.747-1.443-7.446.027a2.618,2.618,0,0,1-3.217-3.066,1.092,1.092,0,0,0-.716-1.284,5.311,5.311,0,0,0-2.759.462,2.647,2.647,0,0,1-2.072.163,2.616,2.616,0,0,1-1.527-1.378c-1.775-3.86-6.042-6.384-11.415-6.75-5.605-.378-10.724,1.721-13.042,5.359a2.7,2.7,0,0,1-2.065,1.237,2.567,2.567,0,0,1-2.144-.879A5.849,5.849,0,0,0,1399.4,1886a3.34,3.34,0,0,0-3.165,1.868,2.66,2.66,0,0,1-2.311,1.2,2.585,2.585,0,0,1-2.19-1.368,5.716,5.716,0,0,0-5.157-3.193c-2.114,0-3.955,1.015-4.51,2.017a2.6,2.6,0,0,1-1.613,1.26,2.646,2.646,0,0,1-1.978-.248,2.489,2.489,0,0,0-1.881,0,2.636,2.636,0,0,1-3.69-.243,14.592,14.592,0,0,0-14.205-4.184,11.961,11.961,0,0,0-9.2,8.629,2.626,2.626,0,0,1-3.451,1.8,2.443,2.443,0,0,0-2.517.939,2.639,2.639,0,0,1-1.854,1.229,2.6,2.6,0,0,1-2.1-.613,4.144,4.144,0,0,0-4.508-.79,5.232,5.232,0,0,0-2.813,5,2.611,2.611,0,0,1-2.5,2.586.619.619,0,0,0-.391.215,2.592,2.592,0,0,1-3.347,1.421,2.832,2.832,0,0,0-3.651,1.13c-.885,1.619-.28,4.694,4.341,8.029l.046.033a1.776,1.776,0,0,1,.857,3Zm1.986-17.371h0Zm44.677-13.49,0,0Z" transform="translate(-1318.455 -1877.977)"/></g><g transform="translate(51.024 228.77)"><path class="m" d="M1360.573,2437.473q-6.666-.918-13.31-2.109l-2.069-19.063-10.877-100.146h16.848l.693,8.919,7.614,98.188.027.368Z" transform="translate(-1334.318 -2316.156)"/></g><g transform="translate(67.872 228.77)"><path class="a" d="M1514.233,2439.533q-9.376-.773-18.708-2.06l-1.074-13.842-.026-.368-7.614-98.187-.693-8.919h22.37l.413,8.919,4.737,101.681.018.368Z" transform="translate(-1486.118 -2316.156)"/></g><g transform="translate(90.242 228.77)"><path class="m" d="M1711.984,2440.545q-9.29-.254-18.562-1.012l-.577-12.408-.018-.368-4.737-101.681-.413-8.919h22.375l.138,8.919,1.563,100.607.009.639Z" transform="translate(-1687.678 -2316.156)"/></g><g transform="translate(112.617 228.77)"><path class="a" d="M1911.652,2316.156l-.137,8.919-1.491,96.114-.009.617-.293,18.735q-9.257.26-18.512,0l-.222-14.225-.009-.639-1.563-100.607-.137-8.919Z" transform="translate(-1889.277 -2316.156)"/></g><g transform="translate(133.061 228.77)"><path class="m" d="M2097.784,2316.156l-.417,8.919-3.965,85.2v.009l-1.363,29.238q-9.27.765-18.562,1.016l.293-18.735.009-.617,1.491-96.114.137-8.919Z" transform="translate(-2073.477 -2316.156)"/></g><g transform="translate(151.622 228.77)"><path class="a" d="M2268.833,2316.156l-.688,8.919-4.679,60.31-.168,2.171-3.872,49.9q-9.329,1.292-18.708,2.065l1.362-29.238v-.009l3.964-85.2.417-8.919Z" transform="translate(-2240.718 -2316.156)"/></g><g transform="translate(170.33 228.77)"><path class="m" d="M2435.528,2316.156l-3.4,31.281-9.545,87.927-3.339.564q-4.974.839-9.971,1.532l3.871-49.9.168-2.171,4.68-60.31.688-8.919Z" transform="translate(-2409.278 -2316.156)"/></g><g transform="translate(48.867 225.36)"><path class="d" d="M1389.761,2415.133c-3.083,0-6.17-.042-9.244-.126-6.212-.169-12.489-.512-18.658-1.018-6.306-.519-12.633-1.216-18.806-2.071-4.392-.606-8.893-1.319-13.378-2.119l-1.31-.234-13.48-124.132h149.87l-13.478,124.145-4.663.788c-3.31.558-6.682,1.075-10.022,1.539-6.211.861-12.538,1.559-18.806,2.076-6.15.508-12.428.851-18.659,1.022C1396.026,2415.09,1392.9,2415.133,1389.761,2415.133Zm-58.152-8.6c4,.7,8.011,1.326,11.931,1.866,6.109.846,12.37,1.535,18.611,2.049,6.1.5,12.316.84,18.464,1.007,6.133.169,12.328.166,18.414,0,6.167-.167,12.38-.508,18.465-1.011,6.2-.511,12.464-1.2,18.61-2.054,3.306-.458,6.643-.971,9.919-1.523l2.013-.34,12.76-117.539H1318.843Z" transform="translate(-1314.885 -2285.433)"/></g><g transform="translate(82.817 196.019)"><path class="k" d="M1620.9,2031.587s-.8-3.73,1.651-5.443c3.368-2.357,6.025,2.783,6.545,2.721s1.209-7.928,8.869-7.8c7.248.122,7.8,6.208,6.912,9.114" transform="translate(-1620.776 -2021.066)"/></g><g class="l" transform="translate(82.817 196.018)"><path class="a" d="M1642.912,2022.6a1.53,1.53,0,0,1-1.586,2.583,9.294,9.294,0,0,0-3.363-.621c-5.02-.085-7.046,3.259-7.993,5.6a1.54,1.54,0,0,1-1.334.966h0a1.513,1.513,0,0,1-1.168-.442c-1.2-1.218-2.932-2.43-4.918-1.042a3.89,3.89,0,0,0-1.43,1.924l-.223.013s-.8-3.731,1.653-5.445c3.367-2.357,6.022,2.781,6.543,2.72s1.207-7.925,8.87-7.8A7.836,7.836,0,0,1,1642.912,2022.6Z" transform="translate(-1620.774 -2021.058)"/></g><g transform="translate(142.86 196.019)"><path class="k" d="M2186.072,2031.587s.795-3.73-1.652-5.443c-3.368-2.357-6.025,2.783-6.545,2.721s-1.208-7.928-8.869-7.8c-7.248.122-7.8,6.208-6.912,9.114" transform="translate(-2161.774 -2021.066)"/></g><g class="l" transform="translate(144.065 196.018)"><path class="a" d="M2195.72,2031.583l-.175-.009a3.954,3.954,0,0,0-1.475-2.046c-2.056-1.438-3.847-.085-5.052,1.174a1.36,1.36,0,0,1-1.061.424l-.045,0a1.346,1.346,0,0,1-1.176-.858c-.91-2.339-2.9-5.9-8.078-5.816a8.634,8.634,0,0,0-4.04.943,1.345,1.345,0,0,1-1.67-2.042c1.1-1.3,2.9-2.244,5.709-2.291,7.658-.127,8.35,7.737,8.866,7.8s3.179-5.077,6.547-2.72C2196.516,2027.852,2195.72,2031.583,2195.72,2031.583Z" transform="translate(-2172.629 -2021.058)"/></g><g transform="translate(81.487 194.686)"><path class="d" d="M1610.245,2022.247a1.333,1.333,0,0,1-1.3-1.054c-.04-.188-.943-4.618,2.19-6.812,2.915-2.04,5.425-.062,6.833,1.413.978-2.549,3.229-6.732,9.152-6.732l.214,0c3.949.067,6,1.762,7.027,3.173a9.03,9.03,0,0,1,1.136,7.661,1.332,1.332,0,1,1-2.548-.778,6.443,6.443,0,0,0-.743-5.317c-.974-1.339-2.628-2.038-4.917-2.076h-.158c-5,0-6.371,4.062-7.032,6.024-.287.851-.558,1.656-1.5,1.767-.835.1-1.31-.459-1.915-1.164-1.846-2.151-2.861-2.6-4.021-1.79-1.677,1.175-1.119,4.047-1.113,4.075a1.332,1.332,0,0,1-1.025,1.581A1.4,1.4,0,0,1,1610.245,2022.247Z" transform="translate(-1608.794 -2009.061)"/></g><g transform="translate(141.082 194.242)"><path class="d" d="M2171.829,2019.136a1.776,1.776,0,0,1-1.74-2.137c.011-.06.476-2.642-.932-3.628-.811-.566-1.563-.458-3.429,1.715-.636.741-1.237,1.445-2.3,1.316-1.222-.144-1.581-1.21-1.87-2.066-1.015-3.013-2.537-5.767-6.762-5.721-2.142.036-3.678.674-4.565,1.894a5.974,5.974,0,0,0-.677,4.926,1.776,1.776,0,1,1-3.4,1.037,9.487,9.487,0,0,1,1.2-8.052c1.086-1.492,3.247-3.286,7.379-3.356.073,0,.146,0,.218,0,5.7,0,8.182,3.8,9.314,6.4,1.545-1.445,4.067-3,6.929-1,2.692,1.885,2.757,5.456,2.37,7.268A1.776,1.776,0,0,1,2171.829,2019.136Z" transform="translate(-2145.752 -2005.062)"/></g><g class="c" transform="translate(61.901 260.05)"><path class="d" d="M1563.6,2598l-9.545,87.928-3.338.564q-4.974.839-9.971,1.532-9.329,1.292-18.708,2.064-9.27.765-18.562,1.017-9.256.259-18.512,0-9.289-.253-18.561-1.012-9.376-.773-18.708-2.06-6.665-.92-13.309-2.109l-2.069-19.063a67.323,67.323,0,0,0,14.277,6.961q1.605.567,3.281,1.057a73.85,73.85,0,0,0,15.951,2.806c.635.045,1.274.08,1.922.106a91.561,91.561,0,0,0,16.994-.909l.639-.094A117.041,117.041,0,0,0,1500,2673.6q1.584-.452,3.13-.994c.213-.075.43-.152.644-.236a64.156,64.156,0,0,0,17.638-9.922q1.005-.786,1.993-1.607a103.847,103.847,0,0,0,17.771-19.574q1.872-2.617,3.614-5.318A204.419,204.419,0,0,0,1563.6,2598Z" transform="translate(-1432.318 -2597.996)"/></g><g class="n" transform="translate(63.302 242.858)"><ellipse class="a" cx="11.837" cy="37.309" rx="11.837" ry="37.309" transform="translate(0 0.944) rotate(-2.285)"/></g><g class="c" transform="translate(50.85 227.138)"><path class="d" d="M1478.665,2301.455l-.9,8.31H1333.655l-.9-8.31Z" transform="translate(-1332.754 -2301.455)"/></g><g transform="translate(38.192 211.876)"><rect class="o" width="171.224" height="15.264" rx="7.632" transform="translate(0 0)"/></g><g class="c" transform="translate(38.193 216.011)"><path class="d" d="M1389.93,2203.11v3.18a6.039,6.039,0,0,1-6.04,6.04H1224.749a6.038,6.038,0,0,1-6.04-6.04v-3.18a5.969,5.969,0,0,1,.31-1.907,6.034,6.034,0,0,0,5.73,4.138H1383.89a6.034,6.034,0,0,0,5.729-4.138A5.962,5.962,0,0,1,1389.93,2203.11Z" transform="translate(-1218.709 -2201.202)"/></g><g transform="translate(36.416 210.1)"><path class="d" d="M1369.654,2166.759h-159.14a7.827,7.827,0,0,1-7.818-7.818v-3.18a7.827,7.827,0,0,1,7.818-7.818h159.14a7.828,7.828,0,0,1,7.818,7.818v3.18A7.827,7.827,0,0,1,1369.654,2166.759Zm-159.14-15.264a4.271,4.271,0,0,0-4.266,4.266v3.18a4.271,4.271,0,0,0,4.266,4.266h159.14a4.271,4.271,0,0,0,4.267-4.266v-3.18a4.271,4.271,0,0,0-4.267-4.266Z" transform="translate(-1202.697 -2147.943)"/></g></g></g></svg>