<svg xmlns="http://www.w3.org/2000/svg" width="16.257" height="16.83" viewBox="0 0 16.257 16.83"><defs><style>.a{fill:#fff;}</style></defs><g transform="translate(-35.999 -60.999)"><path class="a" d="M-13214.166,51.6l-6.706-6.387-6.707,6.387a.832.832,0,0,1-.577.232.836.836,0,0,1-.611-.262.84.84,0,0,1,.026-1.189l6.458-6.122-.026-1.683-6.428-6.122a.837.837,0,0,1-.03-1.189.837.837,0,0,1,1.188-.03l6.707,6.388,6.706-6.388a.837.837,0,0,1,1.188.03.84.84,0,0,1-.026,1.189l-6.431,6.122-.026,1.683,6.457,6.122a.84.84,0,0,1,.026,1.189.827.827,0,0,1-.607.262A.836.836,0,0,1-13214.166,51.6Z" transform="translate(13265 26)"/></g></svg>