<svg xmlns="http://www.w3.org/2000/svg" xmlns:xlink="http://www.w3.org/1999/xlink" width="29" height="26" viewBox="0 0 29 26"><defs><style>.a,.c{fill:#fff;}.a{stroke:#707070;}.b{clip-path:url(#a);}</style><clipPath id="a"><rect class="a" width="29" height="26" transform="translate(12756 -16)"/></clipPath></defs><g class="b" transform="translate(-12756 16)"><g transform="translate(0.296 0.16)"><g transform="translate(12770.433 -24.16) rotate(45)"><path class="c" d="M.965,18A.927.927,0,0,1,.31,16.419L16.458.271a.926.926,0,0,1,1.31,1.31L1.62,17.729A.928.928,0,0,1,.965,18Zm0,0" transform="translate(-0.039 0)"/></g><g transform="translate(12770.433 -16.16) rotate(45)"><path class="c" d="M.965,18A.927.927,0,0,1,.31,16.419L16.458.271a.926.926,0,0,1,1.31,1.31L1.62,17.729A.928.928,0,0,1,.965,18Zm0,0" transform="translate(-0.039 0)"/></g><g transform="translate(12770.433 -8.16) rotate(45)"><path class="c" d="M.965,18A.927.927,0,0,1,.31,16.419L16.458.271a.926.926,0,0,1,1.31,1.31L1.62,17.729A.928.928,0,0,1,.965,18Zm0,0" transform="translate(-0.039 0)"/></g></g></g></svg>