<svg xmlns="http://www.w3.org/2000/svg" width="22.297" height="21.367" viewBox="0 0 22.297 21.367"><defs><style>.a{fill:#ffc107;}</style></defs><path class="a" d="M22.239,8.567a1.183,1.183,0,0,0-1.02-.815l-6.435-.584L12.238,1.211a1.185,1.185,0,0,0-2.179,0L7.514,7.167l-6.436.584A1.186,1.186,0,0,0,.4,9.825l4.864,4.266L3.835,20.41A1.183,1.183,0,0,0,5.6,21.69l5.551-3.318L16.7,21.69a1.185,1.185,0,0,0,1.763-1.28l-1.434-6.319,4.864-4.265A1.186,1.186,0,0,0,22.239,8.567Zm0,0" transform="translate(0 -0.492)"/></svg>